<svg width="34" height="34" viewBox="0 0 34 34" fill="none" xmlns="http://www.w3.org/2000/svg">
<path d="M5.35179 16.9181C4.00876 14.5762 3.36028 12.6639 2.96927 10.7256C2.39096 7.85875 3.71439 5.05832 5.90678 3.27143C6.83338 2.51621 7.89557 2.77425 8.44349 3.75724L9.6805 5.97647C10.661 7.73548 11.1512 8.61498 11.054 9.54743C10.9568 10.4799 10.2956 11.2393 8.97329 12.7582L5.35179 16.9181ZM5.35179 16.9181C8.07022 21.6581 12.3363 25.9265 17.0818 28.6481M17.0818 28.6481C19.4237 29.9911 21.3359 30.6396 23.2743 31.0306C26.1411 31.6089 28.9415 30.2855 30.7284 28.093C31.4836 27.1665 31.2256 26.1043 30.2426 25.5563L28.0234 24.3193C26.2643 23.3388 25.3848 22.8487 24.4524 22.9459C23.5199 23.043 22.7605 23.7042 21.2417 25.0265L17.0818 28.6481Z" stroke="#2C723D" stroke-linejoin="round"/>
</svg>
