<svg width="34" height="34" viewBox="0 0 34 34" fill="none" xmlns="http://www.w3.org/2000/svg">
<path d="M20.5417 14.1667C19.9321 12.1185 17.8295 10.625 15.5833 10.625C12.8449 10.625 10.625 12.8449 10.625 15.5833C10.625 18.0812 12.4721 20.198 14.875 20.5417" stroke="#2C723D" stroke-linecap="round"/>
<path d="M28.2637 14.1663C27.5827 7.84016 22.0434 2.83301 15.584 2.83301C8.68402 2.83301 2.83398 8.5464 2.83398 15.4779C2.83398 22.5441 8.78951 27.4286 14.2707 30.8217C14.6709 31.0476 15.1236 31.1663 15.584 31.1663C16.0444 31.1663 16.497 31.0476 16.8972 30.8217C17.2579 30.6009 17.6206 30.3734 17.9834 30.139" stroke="#2C723D" stroke-linecap="round"/>
<path d="M24.792 17C28.242 17 31.167 19.8567 31.167 23.3224C31.167 26.8433 28.1944 29.3142 25.4486 30.9943C25.2486 31.1073 25.0222 31.1667 24.792 31.1667C24.5618 31.1667 24.3354 31.1073 24.1354 30.9943C21.3947 29.2978 18.417 26.8555 18.417 23.3224C18.417 19.8567 21.342 17 24.792 17Z" stroke="#2C723D"/>
<path d="M24.792 23.375H24.8051" stroke="#2C723D" stroke-linecap="round" stroke-linejoin="round"/>
</svg>
