<svg width="18" height="18" viewBox="0 0 18 18" fill="none" xmlns="http://www.w3.org/2000/svg">
<path d="M5.25 5.625L7.45652 6.92957C8.7429 7.69013 9.2571 7.69013 10.5435 6.92957L12.75 5.625" stroke="black" stroke-width="1.5" stroke-linecap="round" stroke-linejoin="round"/>
<path d="M7.875 14.625C7.52527 14.6204 7.17512 14.6137 6.82412 14.6049C4.46275 14.5456 3.28206 14.5159 2.43372 13.6638C1.58537 12.8117 1.56086 11.6615 1.51183 9.36105C1.49606 8.62132 1.49605 7.88602 1.51182 7.14632C1.56085 4.84585 1.58537 3.69561 2.43371 2.84354C3.28206 1.99147 4.46275 1.9618 6.82411 1.90243C8.27947 1.86585 9.72053 1.86586 11.1759 1.90244C13.5373 1.96181 14.7179 1.99149 15.5662 2.84356C16.4146 3.69562 16.4392 4.84586 16.4881 7.14633C16.4954 7.48688 16.4993 7.64738 16.4999 7.875" stroke="black" stroke-linecap="round" stroke-linejoin="round"/>
<path d="M14.25 12.75C14.25 13.3713 13.7463 13.875 13.125 13.875C12.5037 13.875 12 13.3713 12 12.75C12 12.1287 12.5037 11.625 13.125 11.625C13.7463 11.625 14.25 12.1287 14.25 12.75ZM14.25 12.75V13.125C14.25 13.7463 14.7537 14.25 15.375 14.25C15.9963 14.25 16.5 13.7463 16.5 13.125V12.75C16.5 10.886 14.989 9.375 13.125 9.375C11.261 9.375 9.75 10.886 9.75 12.75C9.75 14.614 11.261 16.125 13.125 16.125" stroke="black" stroke-linecap="round" stroke-linejoin="round"/>
</svg>
