<svg width="18" height="18" viewBox="0 0 18 18" fill="none" xmlns="http://www.w3.org/2000/svg">
<path d="M10.875 7.5C10.5523 6.4157 9.43913 5.625 8.25 5.625C6.80025 5.625 5.625 6.80025 5.625 8.25C5.625 9.5724 6.60289 10.6931 7.875 10.875" stroke="#141B34" stroke-linecap="round"/>
<path d="M14.9628 7.5C14.6023 4.15085 11.6697 1.5 8.25 1.5C4.59708 1.5 1.5 4.52474 1.5 8.19435C1.5 11.9353 4.65292 14.5212 7.55475 16.3175C7.76662 16.4372 8.00625 16.5 8.25 16.5C8.49375 16.5 8.73338 16.4372 8.94525 16.3175C9.1362 16.2007 9.3282 16.0802 9.52027 15.9561" stroke="#141B34" stroke-linecap="round"/>
<path d="M13.125 9C14.9515 9 16.5 10.5124 16.5 12.3472C16.5 14.2112 14.9263 15.5193 13.4726 16.4087C13.3667 16.4686 13.2469 16.5 13.125 16.5C13.0031 16.5 12.8833 16.4686 12.7774 16.4087C11.3264 15.5106 9.75 14.2176 9.75 12.3472C9.75 10.5124 11.2985 9 13.125 9Z" stroke="#141B34"/>
<path d="M13.125 12.375H13.1318" stroke="#141B34" stroke-linecap="round" stroke-linejoin="round"/>
</svg>
