<svg width="15" height="15" viewBox="0 0 15 15" fill="none" xmlns="http://www.w3.org/2000/svg">
<path d="M2.36101 7.464C1.7685 6.43081 1.48241 5.58718 1.3099 4.73201C1.05476 3.46724 1.63863 2.23176 2.60586 1.44342C3.01466 1.11024 3.48327 1.22408 3.725 1.65775L4.27074 2.63682C4.70331 3.41286 4.91959 3.80087 4.87669 4.21224C4.83379 4.62362 4.54211 4.95866 3.95873 5.62876L2.36101 7.464ZM2.36101 7.464C3.56032 9.55519 5.4424 11.4383 7.536 12.639M7.536 12.639C8.56919 13.2315 9.41281 13.5176 10.268 13.6901C11.5327 13.9453 12.7682 13.3614 13.5566 12.3941C13.8897 11.9854 13.7759 11.5168 13.3422 11.275L12.3632 10.7293C11.5871 10.2967 11.1991 10.0804 10.7877 10.1233C10.3764 10.1662 10.0413 10.4579 9.37125 11.0413L7.536 12.639Z" stroke="#E9FFEE" stroke-linejoin="round"/>
</svg>
