<svg width="17" height="16" viewBox="0 0 17 16" fill="none" xmlns="http://www.w3.org/2000/svg">
<path d="M8.5625 15.9219C7.47222 15.9219 6.44531 15.7136 5.48178 15.2969C4.51824 14.8803 3.67911 14.314 2.96438 13.5981C2.24965 12.8822 1.68338 12.0431 1.26558 11.0807C0.847772 10.1184 0.639456 9.09146 0.64063 8C0.64063 6.90678 0.848946 5.87899 1.26558 4.91663C1.68221 3.95427 2.24848 3.11602 2.96438 2.40188C3.68028 1.68773 4.51941 1.12176 5.48178 0.703954C6.44414 0.286149 7.47105 0.0775394 8.5625 0.0781262C9.65572 0.0781262 10.6835 0.286442 11.6459 0.703074C12.6082 1.11971 13.4468 1.68597 14.1615 2.40188C14.8762 3.11778 15.4419 3.95603 15.8586 4.91663C16.2752 5.87723 16.4838 6.90502 16.4844 8C16.4844 9.09028 16.2761 10.1172 15.8594 11.0807C15.4428 12.0443 14.8765 12.8834 14.1606 13.5981C13.4447 14.3129 12.6065 14.8791 11.6459 15.2969C10.6853 15.7147 9.65748 15.923 8.5625 15.9219ZM8.5625 15.0487C9.07889 14.385 9.50491 13.7334 9.84057 13.0938C10.1762 12.4541 10.4488 11.7382 10.6583 10.9461H6.46673C6.6991 11.7828 6.97725 12.521 7.30117 13.1607C7.62508 13.8003 8.04553 14.4296 8.5625 15.0487ZM7.442 14.9167C7.03124 14.4326 6.65627 13.834 6.31709 13.1211C5.97792 12.4087 5.72559 11.6834 5.56011 10.9452H2.18363C2.68829 12.0402 3.40331 12.938 4.3287 13.6386C5.2541 14.3393 6.29157 14.7653 7.44112 14.9167M9.68213 14.9167C10.8311 14.7653 11.8686 14.3393 12.7945 13.6386C13.7205 12.938 14.4355 12.0402 14.9396 10.9452H11.5649C11.3419 11.6945 11.0611 12.4257 10.7225 13.1387C10.3834 13.851 10.0366 14.4437 9.68213 14.9167ZM1.82451 10.065H5.37615C5.30926 9.70408 5.26231 9.35229 5.23532 9.0096C5.20715 8.6669 5.19307 8.33037 5.19307 8C5.19307 7.66963 5.20686 7.3331 5.23444 6.9904C5.26202 6.64771 5.30896 6.29562 5.37527 5.93415H1.82627C1.73062 6.23929 1.6558 6.57172 1.60182 6.93143C1.54783 7.29114 1.52084 7.64733 1.52084 8C1.52084 8.35267 1.54754 8.70886 1.60094 9.06857C1.65434 9.42828 1.72915 9.76042 1.82539 10.065M6.25724 10.065H10.8678C10.9347 9.70408 10.9816 9.35787 11.0086 9.02632C11.0356 8.69478 11.05 8.35267 11.0517 8C11.0535 7.64733 11.0397 7.30522 11.0104 6.97368C10.981 6.64213 10.9341 6.29592 10.8695 5.93503H6.25636C6.19005 6.29592 6.14311 6.64213 6.11553 6.97368C6.08795 7.30522 6.07416 7.64733 6.07416 8C6.07416 8.35267 6.08795 8.69478 6.11553 9.02632C6.14311 9.35787 6.19093 9.70408 6.25724 10.065ZM11.7489 10.065H15.2996C15.3953 9.75983 15.4701 9.4277 15.5241 9.06857C15.5781 8.70945 15.6048 8.35326 15.6042 8C15.6036 7.64674 15.5769 7.29055 15.5241 6.93143C15.4713 6.5723 15.3964 6.24017 15.2996 5.93503H11.748C11.8149 6.29592 11.8618 6.64771 11.8888 6.9904C11.917 7.3331 11.9311 7.66963 11.9311 8C11.9311 8.33037 11.9173 8.6669 11.8897 9.0096C11.8621 9.35229 11.8152 9.70438 11.7489 10.0658M11.5658 5.05482H14.9405C14.4247 3.93755 13.7182 3.03973 12.821 2.36139C11.9231 1.68304 10.8772 1.25174 9.68301 1.06748C10.0938 1.60734 10.4632 2.22525 10.7912 2.9212C11.1192 3.61715 11.3774 4.32836 11.5658 5.05482ZM6.46673 5.05482H10.6583C10.4259 4.2286 10.1393 3.4816 9.79832 2.81381C9.45738 2.14603 9.04545 1.52519 8.5625 0.951293C8.07956 1.5246 7.66763 2.14544 7.32669 2.81381C6.98634 3.4816 6.69969 4.2286 6.46673 5.05482ZM2.18452 5.05482H5.55923C5.74819 4.32777 6.00638 3.61656 6.33382 2.9212C6.66126 2.22583 7.03065 1.60763 7.442 1.0666C6.2367 1.25144 5.18808 1.68568 4.29613 2.36931C3.40419 3.05294 2.70002 3.94781 2.18363 5.05394" fill="#2C723D"/>
</svg>
