<svg width="40" height="40" viewBox="0 0 40 40" fill="none" xmlns="http://www.w3.org/2000/svg">
<path d="M39.7438 39.052C36.5065 37.1355 32.7622 36.0748 28.9177 35.9852V29.8687C31.8418 29.7515 34.6042 28.5974 36.6297 26.6468C38.6552 24.6961 39.7876 22.0993 39.7911 19.397V19.3248C39.7911 19.2793 39.7716 19.2356 39.7367 19.2034C39.7018 19.1712 39.6546 19.1532 39.6053 19.1532H39.527C36.8725 19.1564 34.3028 20.0169 32.2633 21.5856C30.2238 23.1543 28.843 25.3323 28.3601 27.7423C27.8476 25.1822 26.3228 22.8894 24.0818 21.3092C25.649 19.6421 26.5263 17.5165 26.5583 15.3091C26.5903 13.1018 25.7748 10.9553 24.2565 9.25C22.7382 7.54471 20.615 6.39074 18.2632 5.99261C15.9114 5.59448 13.4829 5.97789 11.4081 7.07489C9.33321 8.1719 7.74598 9.91166 6.92766 11.9859C6.10934 14.0601 6.11277 16.3348 6.93735 18.4069C7.76193 20.479 9.35441 22.2146 11.4326 23.3063C13.5107 24.398 15.9404 24.7751 18.291 24.3709C19.2256 25.9688 20.5934 27.3155 22.2606 28.2791C23.9278 29.2428 25.8373 29.7905 27.8025 29.8687V35.9852C23.958 36.0748 20.2137 37.1355 16.9764 39.052L17.5792 39.9184C20.7976 38.0163 24.5388 37.0054 28.3601 37.0054C32.1814 37.0054 35.9227 38.0163 39.1411 39.9184C39.2027 39.9549 39.2715 39.9799 39.3436 39.9919C39.4156 40.0039 39.4895 40.0026 39.5611 39.9882C39.6326 39.9739 39.7004 39.9466 39.7606 39.908C39.8207 39.8695 39.872 39.8203 39.9116 39.7635C39.9512 39.7066 39.9782 39.643 39.9912 39.5765C40.0042 39.51 40.0029 39.4417 39.9873 39.3757C39.9717 39.3096 39.9422 39.247 39.9004 39.1915C39.8587 39.136 39.8054 39.0886 39.7438 39.052ZM16.4489 23.4992C14.384 23.5021 12.3805 22.8505 10.7734 21.6534C9.16633 20.4562 8.05298 18.7861 7.61945 16.922C7.18592 15.058 7.45849 13.1131 8.39159 11.4124C9.32468 9.71162 10.8618 8.35809 12.746 7.57801C14.6301 6.79793 16.7472 6.63857 18.7434 7.12657C20.7395 7.61457 22.4938 8.72036 23.713 10.2591C24.9321 11.7979 25.5423 13.6763 25.4415 15.5806C25.3407 17.4848 24.5351 19.2994 23.1592 20.7211C21.3683 19.6941 19.3015 19.1509 17.1932 19.1532H17.115C17.0657 19.1532 17.0184 19.1712 16.9836 19.2034C16.9487 19.2356 16.9291 19.2793 16.9291 19.3248V19.397C16.9277 20.773 17.2213 22.1356 17.7931 23.4062C17.3481 23.4681 16.8988 23.4992 16.4489 23.4992Z" fill="#142719"/>
<path d="M6.49337 6.72324C6.59795 6.81979 6.73979 6.87403 6.88768 6.87403C7.03557 6.87403 7.17741 6.81979 7.28199 6.72324C7.38656 6.62669 7.44531 6.49573 7.44531 6.35919C7.44531 6.22264 7.38656 6.09169 7.28199 5.99514L5.60625 4.44792C5.50167 4.35136 5.35983 4.29712 5.21194 4.29712C5.06404 4.29712 4.92221 4.35136 4.81763 4.44792C4.71305 4.54447 4.6543 4.67542 4.6543 4.81197C4.6543 4.94852 4.71305 5.07947 4.81763 5.17603L6.49337 6.72324Z" fill="#142719"/>
<path d="M26.0098 6.87401C26.083 6.8741 26.1556 6.86082 26.2232 6.83495C26.2909 6.80907 26.3524 6.77111 26.4041 6.72324L28.0798 5.17603C28.1844 5.07947 28.2432 4.94852 28.2432 4.81197C28.2432 4.67542 28.1844 4.54447 28.0798 4.44792C28.0281 4.40011 27.9666 4.36218 27.8989 4.33631C27.8313 4.31044 27.7588 4.29712 27.6855 4.29712C27.5376 4.29712 27.3958 4.35136 27.2912 4.44792L25.6155 5.99514C25.5375 6.06714 25.4844 6.15887 25.4629 6.25874C25.4413 6.35861 25.4524 6.46213 25.4946 6.55621C25.5368 6.65028 25.6083 6.73069 25.7 6.78726C25.7917 6.84383 25.8995 6.87402 26.0098 6.87401Z" fill="#142719"/>
<path d="M6.49337 23.6501L4.81763 25.1972C4.71305 25.2938 4.6543 25.4247 4.6543 25.5613C4.6543 25.6978 4.71305 25.8288 4.81763 25.9253C4.92221 26.0219 5.06404 26.0761 5.21194 26.0761C5.35983 26.0761 5.50167 26.0219 5.60625 25.9253L7.28199 24.3782C7.33377 24.3304 7.37484 24.2736 7.40287 24.2111C7.43089 24.1487 7.44531 24.0817 7.44531 24.0141C7.44531 23.9465 7.43089 23.8796 7.40287 23.8171C7.37484 23.7546 7.33377 23.6979 7.28199 23.6501C7.23021 23.6023 7.16873 23.5643 7.10108 23.5385C7.03342 23.5126 6.96091 23.4993 6.88768 23.4993C6.81445 23.4993 6.74194 23.5126 6.67428 23.5385C6.60663 23.5643 6.54516 23.6023 6.49337 23.6501Z" fill="#142719"/>
<path d="M16.4487 3.21766C16.5966 3.21766 16.7384 3.16342 16.843 3.06687C16.9476 2.97032 17.0063 2.83938 17.0063 2.70284V0.514826C17.0063 0.378285 16.9476 0.247338 16.843 0.150789C16.7384 0.0542409 16.5966 0 16.4487 0C16.3008 0 16.159 0.0542409 16.0544 0.150789C15.9499 0.247338 15.8911 0.378285 15.8911 0.514826V2.70284C15.8911 2.83938 15.9499 2.97032 16.0544 3.06687C16.159 3.16342 16.3008 3.21766 16.4487 3.21766Z" fill="#142719"/>
<path d="M17.0063 27.6706C17.0063 27.534 16.9476 27.4031 16.843 27.3066C16.7384 27.21 16.5966 27.1558 16.4487 27.1558C16.3008 27.1558 16.159 27.21 16.0544 27.3066C15.9499 27.4031 15.8911 27.534 15.8911 27.6706V29.8586C15.8911 29.9952 15.9499 30.1261 16.0544 30.2227C16.159 30.3192 16.3008 30.3735 16.4487 30.3735C16.5966 30.3735 16.7384 30.3192 16.843 30.2227C16.9476 30.1261 17.0063 29.9952 17.0063 29.8586V27.6706Z" fill="#142719"/>
<path d="M2.92751 14.6719H0.557612C0.409724 14.6719 0.267894 14.7261 0.163321 14.8227C0.0587487 14.9192 0 15.0502 0 15.1867C0 15.3232 0.0587487 15.4542 0.163321 15.5507C0.267894 15.6473 0.409724 15.7015 0.557612 15.7015H2.92751C3.0754 15.7015 3.21723 15.6473 3.3218 15.5507C3.42638 15.4542 3.48512 15.3232 3.48512 15.1867C3.48512 15.0502 3.42638 14.9192 3.3218 14.8227C3.21723 14.7261 3.0754 14.6719 2.92751 14.6719Z" fill="#142719"/>
<path d="M29.9702 15.7015H32.3401C32.488 15.7015 32.6298 15.6473 32.7344 15.5507C32.839 15.4542 32.8977 15.3232 32.8977 15.1867C32.8977 15.0502 32.839 14.9192 32.7344 14.8227C32.6298 14.7261 32.488 14.6719 32.3401 14.6719H29.9702C29.8223 14.6719 29.6805 14.7261 29.5759 14.8227C29.4713 14.9192 29.4126 15.0502 29.4126 15.1867C29.4126 15.3232 29.4713 15.4542 29.5759 15.5507C29.6805 15.6473 29.8223 15.7015 29.9702 15.7015Z" fill="#142719"/>
</svg>
