<svg width="40" height="40" viewBox="0 0 40 40" fill="none" xmlns="http://www.w3.org/2000/svg">
<path d="M7.54733 18.0375C5.47238 18.0375 3.78128 19.7287 3.78125 21.8036C3.78125 22.3657 3.90722 22.9017 4.12898 23.3837C3.44172 23.588 2.81092 23.7442 2.26575 23.8367C1.50176 23.9885 1.61101 24.7634 2.14599 24.9638C5.01208 25.9192 9.6656 25.3749 14.3673 23.8765C19.0691 22.378 23.7831 19.8959 26.5468 16.6716C28.6978 13.7666 29.0437 11.0818 28.6977 8.12913C29.4416 7.17883 30.1515 6.4942 31.3504 6.44031C31.8663 6.44385 31.993 6.0962 31.885 5.69846L31.0638 2.45452C30.9803 2.1089 30.6141 1.93104 30.1254 2.13136C29.8843 2.23323 29.2169 2.62788 28.5626 3.25519C26.8397 4.80808 27.3813 7.45918 27.0222 6.98843C26.3301 6.12254 25.266 5.56697 24.0762 5.56697C22.4029 5.56697 20.9767 6.66589 20.4879 8.18341C18.5086 8.1083 16.8625 9.43258 16.6335 11.0954C14.6136 11.0113 12.8092 12.1628 12.5389 14.1808C9.50684 13.4176 7.44766 15.5213 7.54733 18.0375ZM30.1427 3.53726L30.6388 5.51485C29.7856 5.72242 29.0897 6.12124 28.5287 6.68831L28.4301 5.85352C28.4326 5.22678 28.8341 4.59754 29.3634 4.08998C29.6685 3.79743 29.8708 3.70935 30.1427 3.53726ZM24.0762 6.72681C25.1449 6.72681 26.0571 7.36665 26.4627 8.27852C25.7126 9.54055 24.8884 10.6031 24.0479 11.5021C23.8802 10.087 22.9236 8.90805 21.6308 8.42012C22.0007 7.43095 22.9517 6.72681 24.0762 6.72681ZM25.6642 15.9183C23.138 18.8654 18.5753 21.3144 14.0159 22.7675C10.87 23.7701 7.71008 24.2842 5.27975 24.249C8.66638 23.1408 13.0063 21.0452 17.0447 18.4906C20.0494 16.5461 22.9801 14.3069 25.014 12.1726C26.0949 11.0187 26.9875 9.84503 27.5908 8.66477C27.7966 11.487 27.1642 14.1089 25.6642 15.9183ZM22.9163 11.945C22.9163 12.2196 22.8727 12.4834 22.7952 12.7311C21.9457 13.5137 21.0092 14.2895 20.01 15.0451C20.1833 12.9982 18.919 11.9358 17.7571 11.3934C18.5067 8.63635 22.612 8.88961 22.9163 11.945ZM18.858 14.848C18.858 15.3161 18.7311 15.7474 18.5171 16.1256C17.8248 16.6114 17.202 17.021 16.5474 17.4372C14.9171 17.3133 13.7292 16.4543 13.6399 14.848C13.6518 11.6566 18.7752 11.4891 18.858 14.848ZM10.1603 34.315C10.1603 34.8771 10.2863 35.4131 10.5081 35.895C9.82079 36.0993 9.18998 36.2556 8.64482 36.3481C7.76628 36.5013 7.85685 37.2972 8.52506 37.4762C11.3912 38.4316 16.0447 37.8885 20.7464 36.3901C25.4482 34.8916 30.1622 32.4083 32.9259 29.1841C35.0252 26.2494 35.4229 23.5949 35.0768 20.6416C35.8206 19.6913 36.5306 19.0078 37.7295 18.9539C38.0936 18.9362 38.3517 18.6166 38.2641 18.2117L37.4429 14.9678C37.3329 14.5479 36.9165 14.491 36.5046 14.6421C36.2635 14.7447 35.4601 15.1845 34.8058 15.8118C32.8432 17.9166 34.0313 20.4281 33.4013 19.5009C32.7091 18.635 31.6451 18.0794 30.4553 18.0794C28.782 18.0794 27.3558 19.1783 26.867 20.6959C25.1678 20.4576 23.2333 21.963 23.0126 23.6068C20.9594 23.4108 19.2336 24.8192 18.918 26.6921C15.9104 25.9563 13.651 28.2681 13.9264 30.5489C11.5008 30.5489 10.2116 32.6291 10.1603 34.315ZM12.5254 15.4324C12.7413 16.8077 13.7062 17.9382 14.9866 18.3954C13.7387 19.1361 12.4488 19.8329 11.3191 20.3572C9.64124 19.9956 8.85069 19.2374 8.7083 17.7453C8.67971 16.0769 10.6662 14.5931 12.5254 15.4324ZM36.5218 15.9115L37.0179 18.025C36.1647 18.2326 35.4688 18.6314 34.9078 19.1985L34.8092 18.3637C34.7432 17.6316 35.4027 16.6073 36.5218 15.9115ZM7.84522 19.2121C8.21312 20.0777 8.89707 20.7785 9.74921 21.1716C8.1376 21.9285 6.59988 22.5606 5.24124 23.028C5.04834 22.6632 4.94109 22.2479 4.94109 21.8036C5.13816 20.0114 6.50877 19.23 7.84522 19.2121ZM32.8418 20.7888C32.0913 22.051 31.2675 23.1134 30.427 24.0134C30.2594 22.5983 29.3027 21.4194 28.0099 20.9314C28.3798 19.9423 29.3309 19.2382 30.4275 19.2376C31.5241 19.237 32.4362 19.8769 32.8418 20.7888ZM33.9699 21.1761C34.2461 24.5267 33.2572 26.9642 32.0433 28.4285C29.5172 31.3756 24.9544 33.8246 20.3951 35.2777C17.2491 36.2803 14.0892 36.7944 11.6589 36.7592C15.0455 35.651 19.3855 33.5554 23.4238 31.0008C26.391 28.9294 29.0867 27.1377 31.3931 24.6839C32.3953 23.5347 33.3269 22.3718 33.9699 21.1761ZM29.1743 25.2423C28.3248 26.025 27.3883 26.8008 26.3891 27.5564C26.652 25.7975 25.2981 24.4471 24.1362 23.9047C25.0705 20.5887 29.9626 22.2157 29.1743 25.2423ZM23.3932 24.8606C25.0245 25.3708 25.6113 27.1213 24.8962 28.6369C24.2039 29.1228 23.5811 29.5324 22.9265 29.9485C21.3934 29.6245 20.1034 28.7971 20.019 27.3581C19.9848 25.4593 22.0011 24.5437 23.3932 24.8606ZM18.9045 27.9426C19.1204 29.3179 20.0853 30.4484 21.3657 30.9056C20.1178 31.6463 18.8279 32.3431 17.6982 32.8674C15.9281 32.4859 15.2479 31.7112 15.0874 30.2554C15.1221 28.3581 17.3461 27.3947 18.9045 27.9426ZM14.2243 31.7234C14.5922 32.589 15.2762 33.2898 16.1283 33.6829C14.5167 34.4398 12.979 35.0719 11.6204 35.5393C11.4275 35.1745 11.3202 34.7592 11.3202 34.3149C11.3757 32.5446 12.8308 31.7421 14.2243 31.7234Z" fill="#142719"/>
</svg>
