<svg width="40" height="40" viewBox="0 0 40 40" fill="none" xmlns="http://www.w3.org/2000/svg">
<g clip-path="url(#clip0_49_1091)">
<path d="M26.9624 7.4472C26.678 7.17092 26.1653 7.17092 25.8809 7.4472C25.3483 7.9656 12.8433 20.2214 12.8433 27.1399C12.8433 34.231 18.9348 39.9999 26.4217 39.9999C33.9085 39.9999 40 34.231 40 27.1399C40 20.2214 27.495 7.9656 26.9624 7.4472ZM26.4217 38.571C19.7665 38.571 14.352 33.4429 14.352 27.1399C14.352 21.5631 24.0083 11.4297 26.4217 8.98426C28.8357 11.429 38.4913 21.5603 38.4913 27.1399C38.4913 33.4429 33.0768 38.571 26.4217 38.571Z" fill="#142719"/>
<path d="M15.1254 10.8957C15.1254 7.15251 8.82241 0.907022 8.10343 0.207221C7.81904 -0.0690737 7.30638 -0.0690737 7.02199 0.207221C6.30301 0.907022 0 7.15251 0 10.8957C0 14.845 3.39241 18.058 7.56273 18.058C11.733 18.058 15.1254 14.845 15.1254 10.8957ZM7.56273 16.6291C4.22484 16.6291 1.50871 14.057 1.50871 10.8957C1.50871 8.44851 5.47647 3.88098 7.56273 1.74464C9.64971 3.88027 13.6167 8.44609 13.6167 10.8957C13.6167 14.057 10.9006 16.6291 7.56273 16.6291Z" fill="#142719"/>
<path d="M6.8084 13.5656C5.56045 13.5656 4.54533 12.6041 4.54533 11.4222C4.54533 11.0277 4.20789 10.7078 3.79098 10.7078C3.37403 10.7078 3.03662 11.0277 3.03662 11.4222C3.03662 13.3918 4.72877 14.9944 6.8084 14.9944C7.22531 14.9944 7.56275 14.6745 7.56275 14.28C7.56275 13.8855 7.22531 13.5656 6.8084 13.5656Z" fill="#142719"/>
<path d="M26.4216 34.2845C22.2623 34.2845 18.8781 31.0796 18.8781 27.14C18.8781 26.7455 18.5407 26.4255 18.1237 26.4255C17.7068 26.4255 17.3694 26.7455 17.3694 27.14C17.3694 31.8673 21.4299 35.7134 26.4216 35.7134C26.8386 35.7134 27.176 35.3934 27.176 34.9989C27.176 34.6044 26.8386 34.2845 26.4216 34.2845Z" fill="#142719"/>
</g>
<defs>
<clipPath id="clip0_49_1091">
<rect width="40" height="40" fill="white"/>
</clipPath>
</defs>
</svg>
