<svg width="40" height="40" viewBox="0 0 40 40" fill="none" xmlns="http://www.w3.org/2000/svg">
<g clip-path="url(#clip0_53_50)">
<path d="M6.22328 38.8547L5.66943 33.3891C5.66943 32.8863 6.32328 33.3315 7.14813 33.3315C7.96646 33.3315 8.62806 32.8863 8.62806 33.3891L8.16441 38.7195C8.16441 39.8835 6.22328 39.4095 6.22328 38.8547Z" fill="#142719"/>
<path d="M3.84908 21.0615C-0.213567 19.2619 0.117028 16.4287 0.117028 16.4287C-0.395599 17.4287 0.694958 26.1523 4.92903 26.1523C6.82363 26.1523 8.41538 23.0715 3.84908 21.0615Z" fill="#142719"/>
<path d="M3.84908 14.8977C-0.213567 13.1037 0.117028 10.2705 0.117028 10.2705C-0.395599 11.2681 0.694958 19.9941 4.92903 19.9941C6.82363 19.9941 8.41538 16.9133 3.84908 14.8977Z" fill="#142719"/>
<path d="M3.84908 8.91875C-0.213567 7.13235 0.117028 4.29395 0.117028 4.29395C-0.395599 5.29395 0.694958 14.0123 4.92903 14.0123C6.82363 14.0123 8.41538 10.9395 3.84908 8.91875Z" fill="#142719"/>
<path d="M9.48248 26.1523C13.7165 26.1523 14.8018 17.4287 14.2945 16.4287C14.2945 16.4287 14.6226 19.2619 10.5575 21.0615C5.99612 23.0715 7.58257 26.1523 9.48248 26.1523Z" fill="#142719"/>
<path d="M3.84908 27.3736C-0.213567 25.5744 0.117028 22.7412 0.117028 22.7412C-0.395599 23.7412 0.694958 32.4648 4.92903 32.4648C6.82363 32.4648 8.41538 29.384 3.84908 27.3736Z" fill="#142719"/>
<path d="M9.48248 32.4648C13.7165 32.4648 14.8018 23.7412 14.2945 22.7412C14.2945 22.7412 14.6226 25.5744 10.5575 27.3736C5.99612 29.384 7.58257 32.4648 9.48248 32.4648Z" fill="#142719"/>
<path d="M9.48248 19.9941C13.7165 19.9941 14.8018 11.2681 14.2945 10.2705C14.2945 10.2705 14.6226 13.1037 10.5575 14.8977C5.99612 16.9133 7.58257 19.9941 9.48248 19.9941Z" fill="#142719"/>
<path d="M9.48248 14.0123C13.7165 14.0123 14.8018 5.29395 14.2945 4.29395C14.2945 4.29395 14.6226 7.13235 10.5575 8.91875C5.99612 10.9395 7.58257 14.0123 9.48248 14.0123Z" fill="#142719"/>
<path d="M7.50014 9.3848C11.9917 9.3848 7.25321 0 7.25321 0C6.68181 0.8828 3.00976 9.3848 7.50014 9.3848Z" fill="#142719"/>
<path d="M19.6443 39.5867L22.3548 34.9383C22.5699 34.4907 21.781 34.6131 21.0406 34.2799C20.2888 33.9383 19.8876 33.2643 19.6733 33.7199L17.8256 38.9019C17.5877 39.4095 19.1407 40.6387 19.6443 39.5867Z" fill="#142719"/>
<path d="M23.3188 21.7879C20.4137 18.4783 21.9266 16.0459 21.9266 16.0459C21.0328 16.7411 18.2746 25.1055 22.1099 26.8527C23.829 27.6367 26.5978 25.5011 23.3188 21.7879Z" fill="#142719"/>
<path d="M25.971 16.1944C23.0642 12.8924 24.576 10.4604 24.576 10.4604C23.6805 11.1532 20.9182 19.5148 24.7564 21.2676C26.4812 22.0488 29.2443 19.9185 25.971 16.1944Z" fill="#142719"/>
<path d="M28.5401 10.778C25.6251 7.48122 27.145 5.03882 27.145 5.03882C26.252 5.73402 23.4918 14.0932 27.3312 15.8456C29.0503 16.6244 31.8162 14.4968 28.5401 10.778Z" fill="#142719"/>
<path d="M26.2418 28.7379C30.0808 30.4799 34.8189 23.0247 34.7814 21.9023C34.7814 21.9023 33.8647 24.6083 29.4033 24.5587C24.4027 24.5067 24.5199 27.9495 26.2418 28.7379Z" fill="#142719"/>
<path d="M20.6086 27.5119C17.6978 24.2043 19.2112 21.7751 19.2112 21.7751C18.3181 22.4675 15.5591 30.8295 19.3973 32.5711C21.1213 33.3551 23.8823 31.2251 20.6086 27.5119Z" fill="#142719"/>
<path d="M23.5286 34.4569C27.3651 36.2069 32.1032 28.7437 32.0714 27.6265C32.0714 27.6265 31.1518 30.3321 26.6933 30.2829C21.6903 30.2305 21.8099 33.6757 23.5286 34.4569Z" fill="#142719"/>
<path d="M28.8936 23.1477C32.7301 24.8949 37.465 17.4293 37.4332 16.3145C37.4332 16.3145 36.514 19.0177 32.0555 18.9709C27.0492 18.9185 27.1717 22.3689 28.8936 23.1477Z" fill="#142719"/>
<path d="M31.4629 17.7204C35.3023 19.4728 40.0318 12.0124 40 10.8928C40 10.8928 39.078 13.606 34.6248 13.5488C29.6213 13.4968 29.7438 16.942 31.4629 17.7204Z" fill="#142719"/>
<path d="M31.6515 12.7052C35.7223 14.5592 35.4619 4.09082 35.4619 4.09082C34.564 4.66402 27.5807 10.8508 31.6515 12.7052Z" fill="#142719"/>
</g>
<defs>
<clipPath id="clip0_53_50">
<rect width="40" height="40" fill="white"/>
</clipPath>
</defs>
</svg>
