<svg width="22" height="14" viewBox="0 0 22 14" fill="none" xmlns="http://www.w3.org/2000/svg">
<path d="M13 5.7486V2.05285C13 1.22025 12.8489 1.05286 12.0196 1.05286L9.6696 1.0001C8.93806 1.0001 8.5723 1.0001 8.42446 1.23724C8.27662 1.47437 8.44019 1.79868 8.76735 2.4473C8.94905 2.80755 9.0462 3.06845 9.0462 3.47222V6.1315C9.0462 6.9725 9.0462 7.393 8.72664 7.5177C8.40712 7.6425 8.14158 7.3602 7.6105 6.7957C6.30883 5.4119 5.63136 3.6843 5.18601 1.80138C5.09378 1.41142 5.04766 1.21643 4.91001 1.10827C4.77235 1.0001 4.5763 1.0001 4.18419 1.0001H1.98492C1.50242 1.0001 1.26117 1.0001 1.11047 1.1707C0.959771 1.34129 0.988991 1.5589 1.04743 1.99411C1.57467 5.9207 5.028 12.3595 11.4074 12.9737C12.5372 13.0825 13 12.7771 13 11.5391C13 10.8374 12.9851 9.7029 13.8682 9.5542C14.3306 9.4764 14.6421 9.6406 15.1594 10.0745C16.0555 10.826 16.5247 11.7434 16.8517 12.4406C17.0686 12.9032 17.2299 13 17.7396 13H19.8138C20.8618 13 21.1473 12.7442 20.6805 11.7605C20.0895 10.5151 19.2484 9.5257 18.4836 8.867C17.8484 8.3199 17.5308 8.0463 17.5131 7.845C17.4953 7.6436 17.7284 7.3586 18.1944 6.7885C19.0948 5.6871 20.3202 3.9578 20.8922 2.12282C21.1756 1.21377 20.909 1.0001 19.988 1.0001H18.1249C17.2224 1.0001 17.223 0.968873 17.01 1.99279C16.6642 3.65426 15.5317 5.2511 14.4679 6.3382C13.9633 6.8539 13.6581 7.1645 13.3432 7.0379C13.0284 6.9114 13 6.5238 13 5.7486Z" stroke="#141B34" stroke-width="1.5" stroke-linecap="round" stroke-linejoin="round"/>
</svg>
